<svg width="79" height="59" viewBox="0 0 79 59" fill="none" xmlns="http://www.w3.org/2000/svg">
<path d="M18.461 59V28.9888L9.15347 20.4738L0.807358 15.7486V53.7039C0.807358 56.6344 3.18177 59 6.10345 59H18.461Z" fill="#4285F4"/>
<path d="M60.8297 59H73.1873C76.1178 59 78.4834 56.6256 78.4834 53.7039V15.7486L69.0301 21.1611L60.8297 28.9888V59Z" fill="#34A853"/>
<path d="M18.461 28.9888L17.1945 17.2624L18.461 6.03906L39.6454 21.9273L60.8297 6.03906L62.2465 16.6564L60.8297 28.9888L39.6454 44.8771L18.461 28.9888Z" fill="#EA4335"/>
<path d="M60.8297 6.03908V28.9888L78.4834 15.7486V8.68713C78.4834 2.13763 71.0071 -1.59612 65.7728 2.33182L60.8297 6.03908Z" fill="#FBBC04"/>
<path d="M0.807343 15.7486L8.92655 21.838L18.461 28.9888V6.03908L13.518 2.33182C8.27483 -1.59612 0.807343 2.13763 0.807343 8.68713V15.7486Z" fill="#C5221F"/>
</svg>
