<svg width="59" height="59" viewBox="0 0 59 59" fill="none" xmlns="http://www.w3.org/2000/svg">
<path d="M29.8639 5.97781C37.6436 5.97781 38.565 6.00742 41.6373 6.14759C44.478 6.27724 46.0208 6.75189 47.0476 7.15079C48.4074 7.67933 49.3781 8.31081 50.3976 9.33032C51.4171 10.3498 52.0486 11.3205 52.5771 12.6804C52.9761 13.7072 53.4507 15.2499 53.5804 18.0905C53.7205 21.1629 53.7502 22.0844 53.7502 29.8641C53.7502 37.6437 53.7205 38.5652 53.5804 41.6375C53.4507 44.4782 52.9761 46.0209 52.5771 47.0477C52.0486 48.4076 51.4171 49.3783 50.3976 50.3978C49.3781 51.4173 48.4074 52.0488 47.0476 52.5772C46.0208 52.9762 44.478 53.4509 41.6373 53.5805C38.5655 53.7207 37.6441 53.7503 29.8639 53.7503C22.0838 53.7503 21.1623 53.7207 18.0905 53.5805C15.2498 53.4509 13.707 52.9762 12.6804 52.5772C11.3204 52.0488 10.3497 51.4173 9.33017 50.3978C8.31067 49.3783 7.67919 48.4076 7.15076 47.0477C6.75175 46.0209 6.27709 44.4782 6.14744 41.6376C6.00727 38.5652 5.97766 37.6437 5.97766 29.8641C5.97766 22.0844 6.00727 21.1629 6.14744 18.0907C6.27709 15.2499 6.75175 13.7072 7.15076 12.6804C7.67919 11.3205 8.31067 10.3498 9.33017 9.33032C10.3497 8.31081 11.3204 7.67933 12.6804 7.15079C13.707 6.75189 15.2498 6.27724 18.0904 6.14759C21.1628 6.00742 22.0842 5.97781 29.8639 5.97781ZM29.8639 0.727966C21.951 0.727966 20.9589 0.761506 17.8512 0.9033C14.7499 1.04486 12.632 1.53732 10.7786 2.25763C8.86269 3.00222 7.23785 3.99848 5.61809 5.61823C3.99833 7.23799 3.00207 8.86284 2.25748 10.7788C1.53718 12.6322 1.04472 14.7501 0.903154 17.8514C0.76136 20.9589 0.727936 21.9511 0.727936 29.8641C0.727936 37.777 0.76136 38.7692 0.903154 41.8767C1.04472 44.9781 1.53718 47.0959 2.25748 48.9493C3.00207 50.8652 3.99833 52.4901 5.61809 54.1099C7.23785 55.7296 8.86269 56.7259 10.7786 57.4705C12.632 58.1908 14.7499 58.6832 17.8512 58.8248C20.9589 58.9666 21.951 59 29.8639 59C37.7768 59 38.769 58.9666 41.8766 58.8248C44.9779 58.6832 47.0958 58.1908 48.9492 57.4705C50.8651 56.7259 52.49 55.7296 54.1097 54.1099C55.7295 52.4901 56.7257 50.8653 57.4703 48.9493C58.1906 47.0959 58.6831 44.9781 58.8247 41.8767C58.9665 38.7692 59 37.777 59 29.8641C59 21.9511 58.9665 20.9589 58.8247 17.8514C58.6831 14.7501 58.1906 12.6322 57.4703 10.7788C56.7257 8.86284 55.7295 7.23799 54.1097 5.61823C52.49 3.99848 50.8651 3.00222 48.9492 2.25763C47.0958 1.53732 44.9779 1.04486 41.8766 0.9033C38.769 0.761506 37.7768 0.727966 29.8639 0.727966ZM29.8639 14.9023C21.6008 14.9023 14.9021 21.6009 14.9021 29.8641C14.9021 38.1272 21.6008 44.8258 29.8639 44.8258C38.127 44.8258 44.8257 38.1272 44.8257 29.8641C44.8257 21.6009 38.127 14.9023 29.8639 14.9023ZM29.8639 39.5761C24.5001 39.5761 20.1518 35.2278 20.1518 29.8641C20.1518 24.5003 24.5001 20.152 29.8639 20.152C35.2277 20.152 39.576 24.5003 39.576 29.8641C39.576 35.2278 35.2277 39.5761 29.8639 39.5761ZM48.9131 14.3111C48.9131 16.2421 47.3478 17.8075 45.4168 17.8075C43.4858 17.8075 41.9204 16.2421 41.9204 14.3111C41.9204 12.3802 43.4858 10.8149 45.4168 10.8149C47.3478 10.8149 48.9131 12.3802 48.9131 14.3111Z" fill="white"/>
</svg>
