<svg width="59" height="59" viewBox="0 0 59 59" fill="none" xmlns="http://www.w3.org/2000/svg">
<path d="M29.136 0.727966C13.0445 0.727966 0 13.7725 0 29.864C0 45.9555 13.0445 59 29.136 59C45.2275 59 58.2721 45.9555 58.2721 29.864C58.2721 13.7725 45.2275 0.727966 29.136 0.727966Z" fill="#40B3E0"/>
<path d="M43.3131 17.4882L38.1091 43.7258C38.1091 43.7258 37.3814 45.5455 35.3799 44.6721L23.3709 35.4651L19.0041 33.3545L11.6532 30.8798C11.6532 30.8798 10.5251 30.4796 10.4158 29.6062C10.3068 28.7328 11.6896 28.2598 11.6896 28.2598L40.9112 16.7966C40.9112 16.7966 43.3131 15.7414 43.3131 17.4882Z" fill="white"/>
<path d="M22.4479 43.4313C22.4479 43.4313 22.0974 43.3985 21.6606 42.0154C21.224 40.6326 19.0042 33.3545 19.0042 33.3545L36.6535 22.1462C36.6535 22.1462 37.6726 21.5276 37.6362 22.1462C37.6362 22.1462 37.8181 22.2553 37.2722 22.7647C36.7264 23.2744 23.4073 35.2468 23.4073 35.2468" fill="#D2E5F1"/>
<path d="M27.9755 38.9953L23.2254 43.3261C23.2254 43.3261 22.8541 43.6079 22.4478 43.4312L23.3574 35.3867" fill="#B5CFE4"/>
</svg>
