<svg width="70" height="70" viewBox="0 0 70 70" fill="none" xmlns="http://www.w3.org/2000/svg">
<path d="M65.625 32.8125C65.1691 32.8096 64.7256 32.6643 64.3563 32.3969L35 11.4406L5.64378 32.3969C5.17282 32.6758 4.61439 32.768 4.07875 32.6554C3.54311 32.5427 3.06917 32.2333 2.7505 31.7883C2.43183 31.3432 2.29159 30.7949 2.35745 30.2515C2.42332 29.7081 2.69051 29.2092 3.10628 28.8531L33.7313 6.97814C34.1018 6.71436 34.5452 6.57261 35 6.57261C35.4548 6.57261 35.8983 6.71436 36.2688 6.97814L66.8938 28.8531C67.2673 29.1235 67.5458 29.505 67.6895 29.9431C67.8333 30.3812 67.8349 30.8535 67.6942 31.2926C67.5535 31.7317 67.2776 32.1151 66.906 32.388C66.5344 32.661 66.0861 32.8096 65.625 32.8125Z" fill="white"/>
<path d="M10.9375 19.6875C10.3573 19.6875 9.80094 19.457 9.3907 19.0468C8.98047 18.6366 8.75 18.0802 8.75 17.5V8.75C8.75 8.16984 8.98047 7.61344 9.3907 7.2032C9.80094 6.79297 10.3573 6.5625 10.9375 6.5625H19.6875C20.2677 6.5625 20.8241 6.79297 21.2343 7.2032C21.6445 7.61344 21.875 8.16984 21.875 8.75C21.875 9.33016 21.6445 9.88656 21.2343 10.2968C20.8241 10.707 20.2677 10.9375 19.6875 10.9375H13.125V17.5C13.125 18.0802 12.8945 18.6366 12.4843 19.0468C12.0741 19.457 11.5177 19.6875 10.9375 19.6875Z" fill="white"/>
<path d="M54.6875 63.4375H43.75C43.1698 63.4375 42.6134 63.207 42.2032 62.7968C41.793 62.3866 41.5625 61.8302 41.5625 61.25V45.9375H28.4375V61.25C28.4375 61.8302 28.207 62.3866 27.7968 62.7968C27.3866 63.207 26.8302 63.4375 26.25 63.4375H15.3125C13.572 63.4375 11.9028 62.7461 10.6721 61.5154C9.4414 60.2847 8.75 58.6155 8.75 56.875V35C8.75 34.4198 8.98047 33.8634 9.3907 33.4532C9.80094 33.043 10.3573 32.8125 10.9375 32.8125C11.5177 32.8125 12.0741 33.043 12.4843 33.4532C12.8945 33.8634 13.125 34.4198 13.125 35V56.875C13.125 57.4552 13.3555 58.0116 13.7657 58.4218C14.1759 58.832 14.7323 59.0625 15.3125 59.0625H24.0625V43.75C24.0625 43.1698 24.293 42.6134 24.7032 42.2032C25.1134 41.793 25.6698 41.5625 26.25 41.5625H43.75C44.3302 41.5625 44.8866 41.793 45.2968 42.2032C45.707 42.6134 45.9375 43.1698 45.9375 43.75V59.0625H54.6875C55.2677 59.0625 55.8241 58.832 56.2343 58.4218C56.6445 58.0116 56.875 57.4552 56.875 56.875V35C56.875 34.4198 57.1055 33.8634 57.5157 33.4532C57.9259 33.043 58.4823 32.8125 59.0625 32.8125C59.6427 32.8125 60.1991 33.043 60.6093 33.4532C61.0195 33.8634 61.25 34.4198 61.25 35V56.875C61.25 58.6155 60.5586 60.2847 59.3279 61.5154C58.0972 62.7461 56.428 63.4375 54.6875 63.4375Z" fill="white"/>
</svg>
