<svg width="70" height="70" viewBox="0 0 70 70" fill="none" xmlns="http://www.w3.org/2000/svg">
<path d="M67.4363 26.4512L45.3134 4.32539C42.5753 1.59536 38.8666 0.0623169 35 0.0623169C31.1335 0.0623169 27.4247 1.59536 24.6867 4.32539L2.56379 26.4512C1.74836 27.2614 1.10186 28.2254 0.661776 29.2874C0.221688 30.3493 -0.00323867 31.488 3.52318e-05 32.6375V61.2704C3.52318e-05 63.591 0.921908 65.8166 2.56285 67.4576C4.20379 69.0985 6.42939 70.0204 8.75004 70.0204H61.25C63.5707 70.0204 65.7963 69.0985 67.4372 67.4576C69.0782 65.8166 70 63.591 70 61.2704V32.6375C70.0033 31.488 69.7784 30.3493 69.3383 29.2874C68.8982 28.2254 68.2517 27.2614 67.4363 26.4512ZM43.75 64.1871H26.25V52.7129C26.25 50.3923 27.1719 48.1667 28.8129 46.5257C30.4538 44.8848 32.6794 43.9629 35 43.9629C37.3207 43.9629 39.5463 44.8848 41.1872 46.5257C42.8282 48.1667 43.75 50.3923 43.75 52.7129V64.1871ZM64.1667 61.2704C64.1667 62.0439 63.8594 62.7858 63.3124 63.3328C62.7654 63.8798 62.0236 64.1871 61.25 64.1871H49.5834V52.7129C49.5834 48.8452 48.0469 45.1358 45.312 42.4009C42.5771 39.666 38.8678 38.1296 35 38.1296C31.1323 38.1296 27.423 39.666 24.6881 42.4009C21.9532 45.1358 20.4167 48.8452 20.4167 52.7129V64.1871H8.75004C7.97649 64.1871 7.23462 63.8798 6.68764 63.3328C6.14066 62.7858 5.83337 62.0439 5.83337 61.2704V32.6375C5.83607 31.8645 6.14309 31.1237 6.68795 30.5754L28.8109 8.45831C30.455 6.82185 32.6803 5.90314 35 5.90314C37.3198 5.90314 39.5451 6.82185 41.1892 8.45831L63.3121 30.5841C63.8549 31.1303 64.1617 31.8675 64.1667 32.6375V61.2704Z" fill="white"/>
</svg>
