<svg width="72" height="72" viewBox="0 0 72 72" fill="none" xmlns="http://www.w3.org/2000/svg">
<g clip-path="url(#clip0)">
<path d="M72.0002 9.07481e-06C72.0002 9.07481e-06 56.2502 -1.79999 41.8502 12.6C34.6502 19.35 28.8002 28.35 24.3002 36.45L13.0502 33.75L5.85022 40.95L18.4502 47.25C17.1002 49.95 16.6502 51.75 16.6502 51.75L20.2502 55.35C20.2502 55.35 22.0502 54.45 24.7502 53.55L31.0502 66.15L38.2502 58.95L36.0002 47.7C43.6502 43.2 53.1002 37.35 59.8502 30.6C73.8002 16.2 72.0002 9.07481e-06 72.0002 9.07481e-06ZM57.6002 21.6C55.8002 23.4 52.6502 23.4 50.4002 21.6C48.6002 19.8 48.6002 16.65 50.4002 14.4C52.2002 12.6 55.3502 12.6 57.6002 14.4C59.4002 16.2 59.4002 19.35 57.6002 21.6Z" fill="#FFFEFE"/>
<path d="M18.0002 63.9C14.4002 67.5 6.30021 65.7 6.30021 65.7C6.30021 65.7 4.50022 57.6 8.10021 54C11.7002 50.4 14.8502 49.95 14.8502 49.95C14.8502 49.95 9.00022 48.6 5.40022 52.65C-1.79978 59.85 0.900215 71.55 0.900215 71.55C0.900215 71.55 12.6002 74.25 19.8002 67.05C23.8502 63 22.5002 57.15 22.5002 57.15C22.5002 57.15 21.6002 60.3 18.0002 63.9Z" fill="#FFFEFE"/>
</g>
<defs>
<clipPath id="clip0">
<rect width="72" height="72" fill="white"/>
</clipPath>
</defs>
</svg>
