<svg width="70" height="70" viewBox="0 0 70 70" fill="none" xmlns="http://www.w3.org/2000/svg">
<g clip-path="url(#clip0)">
<path d="M35 35C38.4612 35 41.8446 33.9736 44.7225 32.0507C47.6003 30.1278 49.8434 27.3947 51.1679 24.197C52.4924 20.9993 52.839 17.4806 52.1637 14.0859C51.4885 10.6913 49.8218 7.57306 47.3744 5.12564C44.927 2.67822 41.8087 1.01151 38.4141 0.336265C35.0194 -0.338976 31.5007 0.00758251 28.303 1.33212C25.1053 2.65665 22.3722 4.89967 20.4493 7.77753C18.5264 10.6554 17.5 14.0388 17.5 17.5C17.5046 22.1399 19.3499 26.5884 22.6307 29.8693C25.9116 33.1501 30.3601 34.9954 35 35ZM35 5.83334C37.3074 5.83334 39.5631 6.51758 41.4816 7.79953C43.4002 9.08148 44.8956 10.9036 45.7786 13.0354C46.6616 15.1672 46.8927 17.5129 46.4425 19.7761C45.9923 22.0392 44.8812 24.118 43.2496 25.7496C41.618 27.3812 39.5392 28.4923 37.2761 28.9425C35.0129 29.3927 32.6672 29.1616 30.5354 28.2786C28.4036 27.3956 26.5815 25.9002 25.2995 23.9817C24.0176 22.0631 23.3333 19.8075 23.3333 17.5C23.3333 14.4058 24.5625 11.4384 26.7504 9.25043C28.9383 7.0625 31.9058 5.83334 35 5.83334Z" fill="white"/>
<path d="M35 40.8333C28.0404 40.841 21.3681 43.6091 16.447 48.5303C11.5258 53.4515 8.75772 60.1238 8.75 67.0833C8.75 67.8569 9.05729 68.5987 9.60427 69.1457C10.1513 69.6927 10.8931 70 11.6667 70C12.4402 70 13.1821 69.6927 13.7291 69.1457C14.276 68.5987 14.5833 67.8569 14.5833 67.0833C14.5833 61.6685 16.7344 56.4754 20.5632 52.6466C24.3921 48.8177 29.5852 46.6667 35 46.6667C40.4148 46.6667 45.6079 48.8177 49.4368 52.6466C53.2656 56.4754 55.4167 61.6685 55.4167 67.0833C55.4167 67.8569 55.724 68.5987 56.2709 69.1457C56.8179 69.6927 57.5598 70 58.3333 70C59.1069 70 59.8488 69.6927 60.3957 69.1457C60.9427 68.5987 61.25 67.8569 61.25 67.0833C61.2423 60.1238 58.4742 53.4515 53.553 48.5303C48.6319 43.6091 41.9596 40.841 35 40.8333Z" fill="white"/>
</g>
<defs>
<clipPath id="clip0">
<rect width="70" height="70" fill="white"/>
</clipPath>
</defs>
</svg>
