<svg width="75" height="61" viewBox="0 0 75 61" fill="none" xmlns="http://www.w3.org/2000/svg">
<path d="M62.0999 55.7822L58.0565 59.8255C57.3343 60.544 55.2195 60.9983 55.1562 60.9983C42.3564 61.1061 30.0333 56.0803 20.977 47.0219C11.8949 37.9414 6.8632 25.5698 7.00283 12.7328C7.00283 12.7253 7.46641 10.6702 8.18685 9.95537L12.2301 5.90841C13.7138 4.42666 16.5543 3.75649 18.5443 4.41915L19.3969 4.7058C21.3869 5.36846 23.4661 7.56505 24.0171 9.58663L26.0536 17.0588C26.6064 19.0841 25.8637 21.9657 24.3819 23.4474L21.679 26.1503C24.3299 35.9755 32.0346 43.6784 41.8541 46.333L44.5571 43.6299C46.0389 42.148 48.928 41.4072 50.9533 41.9582L58.4256 43.9985C60.4435 44.5459 62.64 46.6232 63.3065 48.615L63.5895 49.4675C64.2517 51.4598 63.5816 54.3005 62.0999 55.7822ZM41.3105 30.4991H45.1228C45.1228 26.2883 41.7089 22.8743 37.4981 22.8743V26.6867C39.5996 26.6867 41.3105 28.3992 41.3105 30.4991ZM56.56 30.4991C56.56 19.9703 48.0268 11.4371 37.4981 11.4371V15.2496C45.9083 15.2496 52.7476 22.0925 52.7476 30.4991H56.56ZM37.4981 0V3.81237C52.2115 3.81237 64.1847 15.7856 64.1847 30.4991H67.9971C67.9971 13.6561 54.3411 0 37.4981 0Z" fill="white"/>
</svg>
