<svg width="70" height="66" viewBox="0 0 70 66" fill="none" xmlns="http://www.w3.org/2000/svg">
<path d="M55.4167 0.916664H14.5833C10.717 0.921295 7.01038 2.45924 4.27647 5.19314C1.54257 7.92704 0.00463125 11.6337 0 15.5L0 50.5C0.00463125 54.3663 1.54257 58.073 4.27647 60.8069C7.01038 63.5408 10.717 65.0787 14.5833 65.0833H55.4167C59.283 65.0787 62.9896 63.5408 65.7235 60.8069C68.4574 58.073 69.9954 54.3663 70 50.5V15.5C69.9954 11.6337 68.4574 7.92704 65.7235 5.19314C62.9896 2.45924 59.283 0.921295 55.4167 0.916664ZM14.5833 6.75H55.4167C57.7373 6.75 59.9629 7.67187 61.6039 9.31281C63.2448 10.9538 64.1667 13.1794 64.1667 15.5V18.4167H5.83333V15.5C5.83333 13.1794 6.75521 10.9538 8.39615 9.31281C10.0371 7.67187 12.2627 6.75 14.5833 6.75ZM55.4167 59.25H14.5833C12.2627 59.25 10.0371 58.3281 8.39615 56.6872C6.75521 55.0462 5.83333 52.8206 5.83333 50.5V24.25H64.1667V50.5C64.1667 52.8206 63.2448 55.0462 61.6039 56.6872C59.9629 58.3281 57.7373 59.25 55.4167 59.25ZM55.4167 35.9167C55.4167 36.6902 55.1094 37.4321 54.5624 37.9791C54.0154 38.526 53.2735 38.8333 52.5 38.8333H17.5C16.7265 38.8333 15.9846 38.526 15.4376 37.9791C14.8906 37.4321 14.5833 36.6902 14.5833 35.9167C14.5833 35.1431 14.8906 34.4012 15.4376 33.8543C15.9846 33.3073 16.7265 33 17.5 33H52.5C53.2735 33 54.0154 33.3073 54.5624 33.8543C55.1094 34.4012 55.4167 35.1431 55.4167 35.9167ZM43.75 47.5833C43.75 48.3569 43.4427 49.0987 42.8957 49.6457C42.3487 50.1927 41.6069 50.5 40.8333 50.5H17.5C16.7265 50.5 15.9846 50.1927 15.4376 49.6457C14.8906 49.0987 14.5833 48.3569 14.5833 47.5833C14.5833 46.8098 14.8906 46.0679 15.4376 45.5209C15.9846 44.9739 16.7265 44.6667 17.5 44.6667H40.8333C41.6069 44.6667 42.3487 44.9739 42.8957 45.5209C43.4427 46.0679 43.75 46.8098 43.75 47.5833ZM8.75 12.5833C8.75 12.0065 8.92106 11.4426 9.24155 10.9629C9.56203 10.4833 10.0176 10.1094 10.5505 9.88868C11.0835 9.66793 11.6699 9.61017 12.2357 9.72271C12.8015 9.83525 13.3212 10.113 13.7291 10.5209C14.137 10.9288 14.4148 11.4485 14.5273 12.0143C14.6398 12.5801 14.5821 13.1665 14.3613 13.6995C14.1406 14.2324 13.7667 14.688 13.2871 15.0084C12.8074 15.3289 12.2435 15.5 11.6667 15.5C10.8931 15.5 10.1513 15.1927 9.60427 14.6457C9.05729 14.0987 8.75 13.3569 8.75 12.5833ZM17.5 12.5833C17.5 12.0065 17.6711 11.4426 17.9915 10.9629C18.312 10.4833 18.7676 10.1094 19.3005 9.88868C19.8335 9.66793 20.4199 9.61017 20.9857 9.72271C21.5515 9.83525 22.0712 10.113 22.4791 10.5209C22.887 10.9288 23.1648 11.4485 23.2773 12.0143C23.3898 12.5801 23.3321 13.1665 23.1113 13.6995C22.8906 14.2324 22.5167 14.688 22.0371 15.0084C21.5574 15.3289 20.9935 15.5 20.4167 15.5C19.6431 15.5 18.9013 15.1927 18.3543 14.6457C17.8073 14.0987 17.5 13.3569 17.5 12.5833ZM26.25 12.5833C26.25 12.0065 26.4211 11.4426 26.7415 10.9629C27.062 10.4833 27.5176 10.1094 28.0505 9.88868C28.5835 9.66793 29.1699 9.61017 29.7357 9.72271C30.3015 9.83525 30.8212 10.113 31.2291 10.5209C31.637 10.9288 31.9148 11.4485 32.0273 12.0143C32.1398 12.5801 32.0821 13.1665 31.8613 13.6995C31.6406 14.2324 31.2667 14.688 30.7871 15.0084C30.3074 15.3289 29.7435 15.5 29.1667 15.5C28.3931 15.5 27.6513 15.1927 27.1043 14.6457C26.5573 14.0987 26.25 13.3569 26.25 12.5833Z" fill="white"/>
</svg>
