<svg width="70" height="57" viewBox="0 0 70 57" fill="none" xmlns="http://www.w3.org/2000/svg">
<path d="M55.4167 0.75H14.5833C10.717 0.754631 7.01038 2.29257 4.27647 5.02647C1.54257 7.76038 0.00463125 11.467 0 15.3333L0 32.8333C0.00463125 36.6997 1.54257 40.4063 4.27647 43.1402C7.01038 45.8741 10.717 47.412 14.5833 47.4167H32.0833V50.3333H23.3333C22.5598 50.3333 21.8179 50.6406 21.2709 51.1876C20.724 51.7346 20.4167 52.4765 20.4167 53.25C20.4167 54.0236 20.724 54.7654 21.2709 55.3124C21.8179 55.8594 22.5598 56.1667 23.3333 56.1667H46.6667C47.4402 56.1667 48.1821 55.8594 48.7291 55.3124C49.276 54.7654 49.5833 54.0236 49.5833 53.25C49.5833 52.4765 49.276 51.7346 48.7291 51.1876C48.1821 50.6406 47.4402 50.3333 46.6667 50.3333H37.9167V47.4167H55.4167C59.283 47.412 62.9896 45.8741 65.7235 43.1402C68.4574 40.4063 69.9954 36.6997 70 32.8333V15.3333C69.9954 11.467 68.4574 7.76038 65.7235 5.02647C62.9896 2.29257 59.283 0.754631 55.4167 0.75ZM64.1667 32.8333C64.1667 35.154 63.2448 37.3796 61.6039 39.0205C59.9629 40.6615 57.7373 41.5833 55.4167 41.5833H14.5833C12.2627 41.5833 10.0371 40.6615 8.39615 39.0205C6.75521 37.3796 5.83333 35.154 5.83333 32.8333V15.3333C5.83333 13.0127 6.75521 10.7871 8.39615 9.14615C10.0371 7.50521 12.2627 6.58333 14.5833 6.58333H55.4167C57.7373 6.58333 59.9629 7.50521 61.6039 9.14615C63.2448 10.7871 64.1667 13.0127 64.1667 15.3333V32.8333Z" fill="white"/>
</svg>
