<svg width="70" height="70" viewBox="0 0 70 70" fill="none" xmlns="http://www.w3.org/2000/svg">
<path d="M16.0417 49.5834C18.4579 49.5834 20.4167 47.6246 20.4167 45.2084C20.4167 42.7921 18.4579 40.8334 16.0417 40.8334C13.6254 40.8334 11.6667 42.7921 11.6667 45.2084C11.6667 47.6246 13.6254 49.5834 16.0417 49.5834Z" fill="white"/>
<path d="M55.4167 8.75H14.5833C6.41667 8.75 0 15.1667 0 23.3333V46.6667C0 54.8333 6.41667 61.25 14.5833 61.25H55.4167C63.5833 61.25 70 54.8333 70 46.6667V23.3333C70 15.1667 63.5833 8.75 55.4167 8.75ZM14.5833 14.5833H55.4167C60.375 14.5833 64.1667 18.375 64.1667 23.3333H5.83333C5.83333 18.375 9.625 14.5833 14.5833 14.5833ZM55.4167 55.4167H14.5833C9.625 55.4167 5.83333 51.625 5.83333 46.6667V29.1667H64.1667V46.6667C64.1667 51.625 60.375 55.4167 55.4167 55.4167Z" fill="white"/>
</svg>
