<svg width="154" height="59" viewBox="0 0 154 59" fill="none" xmlns="http://www.w3.org/2000/svg">
<path d="M49.4305 20.3485C49.4305 20.3485 62.6806 15.0903 71.334 14.6837C79.9873 14.2771 93.2477 19.942 93.2477 19.942L72.2513 0.119629L49.4305 20.3485Z" fill="#00A0CF"/>
<path d="M0.710815 33.4674H17.5997V58.548H29.0152V37.1084L39.5134 28.6067H0.710815V33.4674Z" fill="#C1272D"/>
<path d="M39.5132 35.4905H70.0905V39.9356H50.0114V43.9832H68.735V49.2414H50.0114V52.0784C49.9718 52.4324 50.0212 52.7897 50.1562 53.1247C50.2913 53.4596 50.5085 53.7639 50.7922 54.0154C51.076 54.2669 51.4192 54.4595 51.7971 54.5791C52.175 54.6988 52.5781 54.7427 52.9774 54.7075H70.5594V58.9539H44.5279C41.9288 58.9539 38.9323 55.4574 38.9323 53.3794C38.9323 51.3014 39.5132 35.4905 39.5132 35.4905Z" fill="#C1272D"/>
<path d="M77.8578 26.5833H88.356V58.5483L77.9597 58.5664L77.8578 26.5833Z" fill="#C1272D"/>
<path d="M107.079 35.8972H97.9469V58.5562H107.079V35.8972Z" fill="#C1272D"/>
<path d="M97.9469 23.3481L107.303 31.6421H97.9469V23.3481Z" fill="#C1272D"/>
<path d="M114.663 35.8528L126.629 46.8209L114.296 58.4576L125.752 58.3492L132.561 51.6725L140.327 58.5569H152.65L140.552 47.8328L153.099 36.2955L141.52 36.1871L133.244 44.1918L125.711 35.898L114.663 35.8528Z" fill="#C1272D"/>
<path d="M138.115 47.6238C138.117 48.1856 137.93 48.7354 137.58 49.2033C137.229 49.6712 136.729 50.0362 136.144 50.252C135.559 50.4679 134.914 50.5248 134.292 50.4157C133.671 50.3065 133.099 50.0361 132.651 49.6388C132.203 49.2415 131.898 48.7352 131.775 48.1841C131.652 47.6329 131.716 47.0618 131.959 46.543C132.203 46.0243 132.615 45.5813 133.143 45.2702C133.67 44.9592 134.291 44.7941 134.924 44.7959C135.77 44.7983 136.58 45.097 137.177 45.6268C137.775 46.1566 138.112 46.8745 138.115 47.6238Z" fill="white"/>
</svg>
