<svg width="313" height="199" xmlns="http://www.w3.org/2000/svg">
 <!-- Created with Method Draw - http://github.com/duopixel/Method-Draw/ -->

 <g>
  <title>background</title>
  <rect fill="#DBE6FF" id="canvas_background" height="201" width="315" y="-1" x="-1"/>
  <g display="none" overflow="visible" y="0" x="0" height="100%" width="100%" id="canvasGrid">
   <rect fill="url(#gridpattern)" stroke-width="0" y="0" x="0" height="100%" width="100%"/>
  </g>
 </g>
 <g>
  <title>Layer 1</title>
  <style transform="matrix(0.011747914770659838,0,0,0.011747914770659838,0,0) " type="text/css">.st0{fill:#00A0CF;}
	.st1{fill:#C1272D;}
	.st2{fill:#DBE6FF;}</style>
  <g stroke="null" id="svg_14">
   <g stroke="null" transform="matrix(2.0518792218130235,0,0,2.0518792218130235,-26902.46718677499,-17290.087522801074) " id="svg_5">
    <path stroke="null" id="svg_6" d="m13160.701105,8460.343351c0,0 13,-5.8 21.5,-6.3s21.5,5.8 21.5,5.8l-20.6,-21.9l-22.4,22.4z" class="st0"/>
    <polygon stroke="null" id="svg_7" points="13112.901367187498,8474.845649689436 13129.401367187498,8474.845649689436 13129.401367187498,8502.645454376936 13140.601562499998,8502.645454376936 13140.601562499998,8478.845649689436 13150.901367187498,8469.445259064436 13112.901367187498,8469.445259064436 " class="st1"/>
    <path stroke="null" id="svg_8" d="m13150.901105,8477.043351l30,0l0,4.9l-19.7,0l0,4.5l18.4,0l0,5.8l-18.4,0l0,3.1c-0.1,1.5 0.9,2.8 2.4,2.9c0.2,0 0.4,0 0.5,0l17.3,0l0,4.7l-25.5,0c-2.5,0 -5.5,-3.9 -5.5,-6.2s0.5,-19.7 0.5,-19.7z" class="st1"/>
    <polygon stroke="null" id="svg_9" points="13188.501953124998,8467.245063751936 13198.801757812498,8467.245063751936 13198.801757812498,8502.645454376936 13188.601562499998,8502.645454376936 " class="st1"/>
    <rect stroke="null" id="svg_10" height="25.1" width="9" class="st1" y="8477.543351" x="13208.301105"/>
    <polygon stroke="null" id="svg_11" points="13208.301757812498,8463.645454376936 13217.401367187498,8472.845649689436 13208.301757812498,8472.845649689436 " class="st1"/>
    <polygon stroke="null" id="svg_12" points="13224.701171874998,8477.445259064436 13236.401367187498,8489.645454376936 13224.301757812498,8502.545845001936 13235.501953124998,8502.345649689436 13242.201171874998,8494.945259064436 13249.801757812498,8502.645454376936 13261.901367187498,8502.645454376936 13250.101562499998,8490.745063751936 13262.401367187498,8477.945259064436 13251.001953124998,8477.845649689436 13242.901367187498,8486.745063751936 13235.501953124998,8477.545845001936 " class="st1"/>
    <path stroke="null" id="svg_13" d="m13247.701105,8490.543351c0,1.7 -1.4,3.1 -3.1,3.1s-3.1,-1.4 -3.1,-3.1s1.4,-3.1 3.1,-3.1c0,0 0,0 0,0c1.7,-0.1 3.1,1.3 3.1,3.1z" class="st2"/>
   </g>
  </g>
 </g>
</svg>