<svg width="25" height="25" viewBox="0 0 25 25" fill="none" xmlns="http://www.w3.org/2000/svg">
<path d="M20.679 0H4.32099C1.93827 0 0 1.93827 0 4.32099V20.679C0 23.0617 1.93827 25 4.32099 25H20.679C23.0617 25 25 23.0617 25 20.679V4.32099C25 1.93827 23.0617 0 20.679 0ZM10.5309 3.91358L10.5432 3.93827H10.4815L10.5309 3.91358ZM20.5062 16.963L20.321 17.3086C19.6049 18.679 18.037 19.3827 16.5432 18.9877C14.2222 18.358 11.9506 17.0741 10.1975 15.2839C8.40741 13.5185 7.12346 11.2593 6.49383 8.93827C6.08642 7.44444 6.80247 5.87654 8.17284 5.16049C8.32099 5.08642 8.45679 5.01235 8.59259 4.93827C9.01235 4.71605 9.51852 4.85185 9.77778 5.24691C10.2346 5.93827 10.8765 6.93827 11.6543 8.12346C11.8889 8.48148 11.8395 8.96296 11.5309 9.2716L10.8395 9.96296C10.4938 10.3086 10.3951 10.8395 10.6049 11.2963C11.3333 12.8889 12.6049 14.1605 14.1975 14.8889C14.642 15.0988 15.1728 15 15.5309 14.6543L16.1605 14.0247C16.4691 13.716 16.9383 13.6667 17.3086 13.9012L20.2099 15.7901C20.5926 16.037 20.7284 16.5432 20.5062 16.963Z" fill="white"/>
</svg>
