<svg width="25" height="25" viewBox="0 0 25 25" fill="none" xmlns="http://www.w3.org/2000/svg">
<path d="M12.7841 8.52269C13.5686 8.52269 14.2046 7.88673 14.2046 7.10223C14.2046 6.31773 13.5686 5.68176 12.7841 5.68176C11.9996 5.68176 11.3636 6.31773 11.3636 7.10223C11.3636 7.88673 11.9996 8.52269 12.7841 8.52269Z" fill="white"/>
<path d="M15.909 18.7501H14.2045V9.65918H9.65906V10.7955H11.3636V18.7501H9.65906V19.8864H15.909V18.7501Z" fill="white"/>
<path d="M25 12.5C25 5.59657 19.4034 0 12.5 0C5.59657 0 0 5.59657 0 12.5C0 19.4034 5.59657 25 12.5 25C19.4034 25 25 19.4034 25 12.5ZM1.13636 12.5C1.13636 6.22386 6.22386 1.13636 12.5 1.13636C18.7761 1.13636 23.8636 6.22386 23.8636 12.5C23.8636 18.7761 18.7761 23.8636 12.5 23.8636C6.22386 23.8636 1.13636 18.7761 1.13636 12.5Z" fill="white"/>
</svg>
