<svg width="25" height="26" viewBox="0 0 25 26" fill="none" xmlns="http://www.w3.org/2000/svg">
<path d="M10.137 3.70957L9.92377 2.88452C9.49243 2.99611 9.06896 3.13613 8.65613 3.30366L8.97719 4.09374C9.35498 3.9405 9.7424 3.81217 10.137 3.70957Z" fill="white"/>
<path d="M21.3734 7.69154C21.151 7.30654 20.904 6.93624 20.6341 6.58295L19.9565 7.0993C20.2041 7.42368 20.4305 7.76364 20.6345 8.11708L21.3734 7.69154Z" fill="white"/>
<path d="M7.23755 21.5695C7.61884 21.7984 8.01465 22.0022 8.42247 22.1797L8.76357 21.3977C8.39006 21.235 8.02758 21.0482 7.67843 20.8383L7.23755 21.5695Z" fill="white"/>
<path d="M3.46489 10.2596L2.64367 10.0298C2.52413 10.4586 2.43255 10.8947 2.36951 11.3354L3.21375 11.456C3.2715 11.0522 3.35539 10.6526 3.46489 10.2596Z" fill="white"/>
<path d="M5.92778 6.09728L5.33084 5.4884C5.0132 5.80074 4.7161 6.1333 4.44141 6.48401L5.11253 7.00931C5.36434 6.68805 5.63666 6.3834 5.92778 6.09728Z" fill="white"/>
<path d="M19.7571 5.57671C19.4433 5.26142 19.1096 4.96661 18.758 4.69409L18.2357 5.36863C18.5585 5.61834 18.8646 5.88896 19.152 6.17876L19.7571 5.57671Z" fill="white"/>
<path d="M21.5031 15.4351L22.3213 15.6751C22.4463 15.248 22.5433 14.8132 22.6116 14.3734L21.7691 14.2412C21.7064 14.6445 21.6175 15.0433 21.5031 15.4351Z" fill="white"/>
<path d="M18.9886 19.5659L19.5779 20.1811C19.899 19.8739 20.1999 19.5464 20.4789 19.2005L19.8141 18.6658C19.5588 18.9834 19.283 19.284 18.9886 19.5659Z" fill="white"/>
<path d="M12.4999 3.41106H12.5609V2.55829H12.4999C12.0765 2.55837 11.6534 2.58428 11.2332 2.63589L11.3368 3.48184C11.7227 3.43483 12.1111 3.4112 12.4999 3.41106Z" fill="white"/>
<path d="M21.5658 10.3726L22.3896 10.153C22.2752 9.72276 22.1327 9.30045 21.9632 8.88879L21.1748 9.21412C21.3303 9.59132 21.461 9.97831 21.5658 10.3726Z" fill="white"/>
<path d="M20.516 17.6643L21.2443 18.1081C21.4755 17.7283 21.6818 17.3337 21.8617 16.927L21.0818 16.5825C20.9169 16.955 20.7279 17.3163 20.516 17.6643Z" fill="white"/>
<path d="M12.5 22.1719H12.3264L12.309 23.0247H12.5C12.881 23.0245 13.2618 23.0037 13.6406 22.9625L13.5476 22.1144C13.1997 22.1527 12.85 22.172 12.5 22.1719Z" fill="white"/>
<path d="M17.0227 21.0113L17.4346 21.7583C17.8241 21.5432 18.1994 21.3032 18.5581 21.0399L18.0528 20.3525C17.7241 20.5942 17.38 20.8142 17.0227 21.0113Z" fill="white"/>
<path d="M21.8015 11.5717C21.8542 11.9762 21.8805 12.3837 21.8804 12.7916C21.8804 12.8696 21.8804 12.9468 21.8778 13.0244L22.7306 13.0444C22.7306 12.9591 22.7336 12.8739 22.7336 12.7916C22.7337 12.3469 22.7052 11.9027 22.6483 11.4617L21.8015 11.5717Z" fill="white"/>
<path d="M4.42302 8.01853L3.68921 7.58362C3.46278 7.96629 3.26139 8.36323 3.0863 8.77195L3.87042 9.10751C4.0307 8.73287 4.2153 8.3691 4.42302 8.01853Z" fill="white"/>
<path d="M14.75 21.9003L14.9542 22.7284C15.3866 22.6219 15.8115 22.4872 16.2261 22.325L15.9162 21.5323C15.5359 21.6804 15.1463 21.8033 14.75 21.9003Z" fill="white"/>
<path d="M7.87586 4.6279L7.45502 3.88684C7.06819 4.10674 6.69591 4.35128 6.34045 4.61894L6.85211 5.30115C7.17853 5.05496 7.52049 4.83007 7.87586 4.6279Z" fill="white"/>
<path d="M9.67773 22.6307C10.1055 22.7528 10.5408 22.8471 10.9808 22.913L11.1087 22.0696C10.7055 22.009 10.3067 21.9225 9.9148 21.8104L9.67773 22.6307Z" fill="white"/>
<path d="M17.6532 3.94874C17.2687 3.72389 16.8699 3.52448 16.4594 3.35181L16.1289 4.13806C16.5044 4.29611 16.8693 4.47827 17.2213 4.6834L17.6532 3.94874Z" fill="white"/>
<path d="M3.56384 17.7802C3.78113 18.1683 4.02325 18.542 4.28869 18.899L4.97304 18.3903C4.72936 18.0629 4.50704 17.7201 4.30746 17.364L3.56384 17.7802Z" fill="white"/>
<path d="M5.15381 19.9159C5.46368 20.2353 5.79382 20.5344 6.14217 20.8113L6.67216 20.1432C6.35265 19.8895 6.04999 19.6154 5.7661 19.3224L5.15381 19.9159Z" fill="white"/>
<path d="M15.1999 2.91859C14.7707 2.80148 14.3343 2.7126 13.8934 2.65253L13.7792 3.49634C14.1833 3.55122 14.5834 3.63255 14.9769 3.7398L15.1999 2.91859Z" fill="white"/>
<path d="M3.11961 12.7936V12.6742L2.26685 12.6636V12.7915C2.26678 13.1937 2.29027 13.5957 2.3372 13.9952L3.184 13.8962C3.14126 13.5303 3.11976 13.1621 3.11961 12.7936Z" fill="white"/>
<path d="M3.40531 15.0978L2.57812 15.3067C2.68831 15.7385 2.82647 16.1626 2.99172 16.5765L3.78436 16.261C3.63261 15.882 3.50598 15.4934 3.40531 15.0978Z" fill="white"/>
<path d="M24.9734 9.94497C24.7835 9.36051 24.4301 8.84266 23.9552 8.45263C23.6805 8.21028 23.4455 7.92625 23.2589 7.61095C23.1246 7.26158 23.0462 6.8932 23.0266 6.5194C23.0166 5.91255 22.8342 5.32104 22.5008 4.81387C22.0798 4.37436 21.5424 4.06378 20.9513 3.91846C20.5931 3.8173 20.253 3.66016 19.9438 3.45285C19.6752 3.19872 19.4483 2.90389 19.2714 2.57919C18.9986 2.0327 18.5755 1.57535 18.0519 1.26082C17.4862 1.04996 16.8723 1.00427 16.2816 1.12906C15.91 1.1939 15.5305 1.19937 15.1572 1.14527C14.8116 1.03499 14.4856 0.870951 14.191 0.659189C13.7007 0.284619 13.1145 0.0561234 12.5 0C11.8851 0.0572424 11.2989 0.287082 10.809 0.663026C10.5144 0.875332 10.1884 1.04007 9.84278 1.15124C9.46944 1.20474 9.09 1.19913 8.71841 1.13461C8.12771 1.01021 7.51384 1.0559 6.94806 1.26636C6.42412 1.5808 6.00089 2.03834 5.72818 2.58516C5.55138 2.90981 5.32461 3.20464 5.0562 3.45882C4.74686 3.66553 4.40683 3.82209 4.04865 3.92273C3.45766 4.06811 2.92024 4.37868 2.49918 4.81813C2.16578 5.3253 1.98344 5.91681 1.97344 6.52367C1.95385 6.89747 1.87542 7.26584 1.74107 7.61521C1.55447 7.93061 1.31935 8.21465 1.04436 8.45689C0.569642 8.84702 0.216481 9.36486 0.0265781 9.94923C-0.0507095 10.5428 0.0413765 11.1462 0.292215 11.6897C0.439474 12.0405 0.53028 12.4123 0.561263 12.7915C0.530725 13.1721 0.439911 13.5454 0.292215 13.8975C0.0413765 14.4411 -0.0507095 15.0444 0.0265781 15.638C0.216534 16.2225 0.569858 16.7404 1.04478 17.1304C1.31954 17.3727 1.5545 17.6568 1.74107 17.9721C1.87542 18.3214 1.95385 18.6898 1.97344 19.0636C1.98344 19.6705 2.16578 20.262 2.49918 20.7691C2.92073 21.2071 3.45811 21.5162 4.04865 21.6603C4.40693 21.7614 4.74697 21.9186 5.0562 22.1259C5.32478 22.38 5.5517 22.6749 5.7286 22.9996C6.00143 23.546 6.42446 24.0034 6.94806 24.3179C7.51384 24.5284 8.12771 24.5741 8.71841 24.4497C9.08998 24.3848 9.46949 24.3794 9.84278 24.4335C10.1884 24.5438 10.5144 24.7078 10.809 24.9196C11.2989 25.2957 11.8851 25.5256 12.5 25.583C13.1149 25.5258 13.7011 25.2959 14.191 24.92C14.4856 24.7077 14.8116 24.5429 15.1572 24.4318C15.5306 24.3789 15.9099 24.3845 16.2816 24.4484C16.8722 24.5735 17.4863 24.5278 18.0519 24.3166C18.5759 24.0022 18.9991 23.5447 19.2718 22.9978C19.4486 22.6732 19.6754 22.3784 19.9438 22.1242C20.2531 21.9175 20.5932 21.7609 20.9513 21.6603C21.5421 21.5155 22.0795 21.2057 22.5008 20.767C22.8342 20.2598 23.0166 19.6683 23.0266 19.0615C23.0462 18.6877 23.1246 18.3193 23.2589 17.9699C23.4455 17.6545 23.6807 17.3705 23.9556 17.1283C24.4304 16.7381 24.7835 16.2203 24.9734 15.6359C25.0507 15.0423 24.9586 14.4389 24.7078 13.8954C24.5603 13.544 24.4695 13.1714 24.4387 12.7915C24.4693 12.4109 24.5601 12.0376 24.7078 11.6855C24.9586 11.1419 25.0507 10.5386 24.9734 9.94497ZM23.9023 14.1781C24.0895 14.5742 24.172 15.0117 24.142 15.4487C23.9776 15.8708 23.7057 16.2426 23.3532 16.5271C23.0075 16.8344 22.7161 17.1978 22.491 17.602C22.3117 18.0362 22.2064 18.4974 22.1793 18.9664C22.1756 19.4118 22.0569 19.8488 21.8348 20.2349C21.5063 20.5386 21.1049 20.7524 20.6695 20.8553C20.2194 20.9847 19.7942 21.1888 19.4117 21.459C19.0653 21.7708 18.7738 22.1385 18.5491 22.5467C18.352 22.951 18.0528 23.2969 17.681 23.55C17.2576 23.6792 16.8081 23.6972 16.3758 23.602C15.91 23.5244 15.4346 23.5244 14.9688 23.602C14.5276 23.7306 14.1112 23.9324 13.7369 24.199C13.3784 24.4815 12.9518 24.6648 12.5 24.7302C12.0483 24.6646 11.6219 24.4812 11.2635 24.1985C10.8893 23.9321 10.4731 23.7303 10.0321 23.6016C9.83867 23.5597 9.64116 23.5395 9.44326 23.5415C9.16947 23.5467 8.89617 23.5669 8.6246 23.602C8.19229 23.6969 7.74283 23.679 7.31944 23.55C6.94789 23.2966 6.64871 22.9508 6.45132 22.5467C6.22667 22.1386 5.93509 21.7711 5.58875 21.4595C5.20651 21.1889 4.78143 20.9846 4.33135 20.8553C3.89577 20.7528 3.49425 20.539 3.16604 20.2349C2.94384 19.8489 2.82503 19.4121 2.8211 18.9668C2.79415 18.4978 2.68894 18.0367 2.50984 17.6024C2.28462 17.1985 1.99318 16.8353 1.64769 16.5279C1.29542 16.243 1.02378 15.871 0.859731 15.4487C0.829663 15.0117 0.912166 14.5742 1.09936 14.1781C1.28112 13.7368 1.38749 13.2681 1.41403 12.7915C1.38694 12.3149 1.28 11.8461 1.09765 11.4049C0.91046 11.0088 0.827957 10.5713 0.858026 10.1343C1.02239 9.71218 1.29433 9.34043 1.64684 9.05596C1.99249 8.74856 2.28394 8.38518 2.50898 7.98105C2.68828 7.54681 2.79363 7.08563 2.82067 6.61662C2.82441 6.17118 2.94308 5.73426 3.16519 5.34813C3.49367 5.04436 3.89508 4.83066 4.33049 4.72774C4.78062 4.59835 5.20582 4.39426 5.58832 4.12398C5.93468 3.81217 6.22612 3.44433 6.45047 3.03585C6.64786 2.63161 6.94722 2.28582 7.31902 2.03257C7.7424 1.90357 8.19186 1.88565 8.62417 1.98055C9.08992 2.05901 9.5655 2.05901 10.0312 1.98055C10.4724 1.85197 10.8888 1.65018 11.2631 1.38361C11.6217 1.10119 12.0482 0.918112 12.5 0.852767C12.9517 0.918434 13.3781 1.10181 13.7365 1.38447C14.1107 1.65094 14.5269 1.85272 14.9679 1.9814C15.4337 2.05981 15.9092 2.05981 16.375 1.9814C16.8073 1.8861 17.2568 1.90402 17.6801 2.03342C18.0519 2.28648 18.3514 2.63195 18.5491 3.03585C18.7738 3.44399 19.0653 3.81152 19.4117 4.12313C19.7939 4.39369 20.219 4.59794 20.6691 4.72731C21.1047 4.82979 21.5062 5.04355 21.8344 5.3477C22.0567 5.73378 22.1755 6.17072 22.1793 6.61619C22.2063 7.08518 22.3115 7.54635 22.4906 7.98062C22.7158 8.38451 23.0072 8.74772 23.3527 9.05511C23.7054 9.33969 23.9775 9.71158 24.142 10.1339C24.172 10.5709 24.0895 11.0084 23.9023 11.4045C23.72 11.8458 23.613 12.3147 23.586 12.7915C23.6131 13.2682 23.72 13.7369 23.9023 14.1781Z" fill="white"/>
<path d="M13.9173 11.086L12.5 6.71899L11.0827 11.086H6.49524L10.2073 13.7773L8.79046 18.1384L12.5 15.4432L16.2095 18.1384L14.7927 13.7773L18.5048 11.086H13.9173ZM14.5893 15.9041L12.5 14.3888L10.4107 15.9041L11.2081 13.4495L9.12432 11.9388H11.7027L12.5 9.48196L13.2973 11.9388H15.8757L13.7902 13.4512L14.5893 15.9041Z" fill="white"/>
<path d="M20.6013 12.7915C20.6013 11.1892 20.1261 9.62289 19.2359 8.29064C18.3458 6.95839 17.0805 5.92003 15.6002 5.30686C14.1199 4.6937 12.491 4.53326 10.9195 4.84585C9.34799 5.15844 7.90448 5.93002 6.7715 7.063C5.63851 8.19599 4.86694 9.6395 4.55435 11.211C4.24176 12.7825 4.40219 14.4114 5.01536 15.8917C5.62853 17.372 6.66689 18.6373 7.99914 19.5274C9.33139 20.4176 10.8977 20.8928 12.5 20.8928C14.6478 20.8904 16.7071 20.0361 18.2258 18.5173C19.7446 16.9986 20.5989 14.9393 20.6013 12.7915ZM12.5 20.04C11.0663 20.04 9.66492 19.6149 8.47291 18.8184C7.2809 18.0219 6.35184 16.8899 5.80321 15.5654C5.25459 14.2409 5.11104 12.7834 5.39073 11.3774C5.67042 9.97128 6.36077 8.67972 7.37449 7.666C8.38822 6.65227 9.67978 5.96192 11.0859 5.68223C12.4919 5.40255 13.9494 5.54609 15.2739 6.09472C16.5984 6.64334 17.7304 7.5724 18.5269 8.76441C19.3234 9.95643 19.7485 11.3579 19.7485 12.7915C19.7463 14.7132 18.982 16.5557 17.6231 17.9146C16.2642 19.2735 14.4217 20.0379 12.5 20.04Z" fill="white"/>
</svg>
