<svg width="25" height="19" viewBox="0 0 25 19" fill="none" xmlns="http://www.w3.org/2000/svg">
<g clip-path="url(#clip0)">
<path d="M11.5332 0.0195312C8.02151 0.244141 4.71681 1.80469 1.42579 4.79297C1.24805 4.95508 0.853518 5.33398 0.54883 5.63477L-0.00390625 6.18359L1.02735 7.17188L2.06055 8.16016L2.5879 7.63867C2.87891 7.35352 3.2422 7.00391 3.39845 6.86328C7.04885 3.57227 10.6289 2.32812 14.3262 3.06836C16.9786 3.59766 19.7891 5.20508 22.5567 7.77344C22.7012 7.9082 22.8653 8.05859 22.9219 8.11133L23.0235 8.20312L23.8985 7.29102C24.3809 6.78711 24.8262 6.32422 24.8887 6.25781L25.0001 6.13867L24.6622 5.82617C20.8301 2.26562 17.1895 0.398438 13.3985 0.0488281C13.0196 0.0136719 11.8985 -0.00390625 11.5332 0.0195312Z" fill="white"/>
<path d="M11.6113 5.1309C10.6602 5.20707 9.94531 5.35355 9.07227 5.65238C7.27539 6.26176 5.53125 7.40824 3.78125 9.12308C3.53711 9.36137 3.33984 9.56254 3.33984 9.57035C3.33984 9.58012 3.72852 9.95902 4.20312 10.4121C4.67969 10.8672 5.14062 11.3086 5.22852 11.3946L5.38867 11.5489L5.75781 11.1895C6.34375 10.6153 6.76953 10.2442 7.31445 9.83402C8.56836 8.88676 9.81055 8.30277 11.0547 8.07816C11.5059 7.99808 11.7227 7.97855 12.2461 7.97855C12.7676 7.98051 12.9648 7.99613 13.4375 8.07816C15.2656 8.39652 17.1855 9.48051 19.1758 11.3164C19.3418 11.4668 19.4805 11.5899 19.4844 11.5879C19.5117 11.5704 21.4453 9.54691 21.4453 9.53324C21.4453 9.50199 20.6758 8.80668 20.2539 8.45512C18.3652 6.8848 16.5059 5.87699 14.6289 5.41019C14.0801 5.27347 13.5566 5.18754 12.959 5.13676C12.748 5.11918 11.8047 5.11527 11.6113 5.1309Z" fill="white"/>
<path d="M11.7871 10.1289C10.4766 10.2325 9.1758 10.7852 7.98831 11.7442C7.59964 12.0586 6.92386 12.6934 6.93558 12.7324C6.93948 12.7422 7.40237 13.1914 7.96487 13.7285L8.9844 14.7051L9.18557 14.5078C10.3067 13.4063 11.3945 12.8965 12.4356 12.9883C13.0723 13.0449 13.6719 13.2695 14.3555 13.707C14.707 13.9316 15.209 14.3301 15.5137 14.627L15.6465 14.7559L15.7578 14.6387C15.8203 14.5742 16.2617 14.1133 16.7383 13.6152C17.2168 13.1172 17.6094 12.7012 17.6113 12.6875C17.6133 12.6758 17.5156 12.5762 17.3965 12.4668C15.9102 11.1153 14.4766 10.3731 12.957 10.166C12.7344 10.1348 12 10.1133 11.7871 10.1289Z" fill="white"/>
<path d="M11.9434 14.8066C11.3594 14.8906 10.8398 15.2676 10.5977 15.7832C10.4902 16.0098 10.4609 16.1484 10.4609 16.416C10.4609 16.6836 10.4902 16.8223 10.5977 17.0488C10.8984 17.6856 11.582 18.0781 12.3242 18.0391C13.0157 18.0039 13.5977 17.6348 13.8692 17.0586C13.9747 16.8379 14.0098 16.6738 14.0098 16.416C14.0098 16.1504 13.9727 15.9863 13.8575 15.7519C13.5313 15.0801 12.7442 14.6914 11.9434 14.8066Z" fill="white"/>
</g>
<defs>
<clipPath id="clip0">
<rect width="25" height="18.0469" fill="white"/>
</clipPath>
</defs>
</svg>
