<svg width="70" height="70" viewBox="0 0 70 70" fill="none" xmlns="http://www.w3.org/2000/svg">
<path d="M43.7501 0H26.2501C22.3838 0.00463125 18.6771 1.54257 15.9432 4.27647C13.2093 7.01038 11.6714 10.717 11.6667 14.5833V55.4167C11.6714 59.283 13.2093 62.9896 15.9432 65.7235C18.6771 68.4574 22.3838 69.9954 26.2501 70H43.7501C47.6164 69.9954 51.323 68.4574 54.0569 65.7235C56.7908 62.9896 58.3288 59.283 58.3334 55.4167V14.5833C58.3288 10.717 56.7908 7.01038 54.0569 4.27647C51.323 1.54257 47.6164 0.00463125 43.7501 0V0ZM26.2501 5.83333H43.7501C46.0707 5.83333 48.2963 6.75521 49.9373 8.39615C51.5782 10.0371 52.5001 12.2627 52.5001 14.5833V46.6667H17.5001V14.5833C17.5001 12.2627 18.422 10.0371 20.0629 8.39615C21.7038 6.75521 23.9294 5.83333 26.2501 5.83333ZM43.7501 64.1667H26.2501C23.9294 64.1667 21.7038 63.2448 20.0629 61.6039C18.422 59.9629 17.5001 57.7373 17.5001 55.4167V52.5H52.5001V55.4167C52.5001 57.7373 51.5782 59.9629 49.9373 61.6039C48.2963 63.2448 46.0707 64.1667 43.7501 64.1667Z" fill="white"/>
<path d="M34.9999 61.25C36.6107 61.25 37.9166 59.9442 37.9166 58.3333C37.9166 56.7225 36.6107 55.4167 34.9999 55.4167C33.3891 55.4167 32.0833 56.7225 32.0833 58.3333C32.0833 59.9442 33.3891 61.25 34.9999 61.25Z" fill="white"/>
</svg>
