<svg width="70" height="70" viewBox="0 0 70 70" fill="none" xmlns="http://www.w3.org/2000/svg">
<g clip-path="url(#clip0)">
<path d="M52.5 20.4167C52.5 20.9936 52.3289 21.5575 52.0085 22.0371C51.688 22.5168 51.2324 22.8906 50.6995 23.1113C50.1665 23.3321 49.5801 23.3899 49.0143 23.2773C48.4485 23.1648 47.9288 22.887 47.5209 22.4791C47.113 22.0712 46.8353 21.5515 46.7227 20.9857C46.6102 20.4199 46.6679 19.8335 46.8887 19.3005C47.1094 18.7676 47.4833 18.3121 47.9629 17.9916C48.4426 17.6711 49.0065 17.5 49.5833 17.5C50.3569 17.5 51.0988 17.8073 51.6457 18.3543C52.1927 18.9013 52.5 19.6431 52.5 20.4167ZM40.8333 26.25C40.2565 26.25 39.6926 26.4211 39.2129 26.7416C38.7333 27.0621 38.3594 27.5176 38.1387 28.0505C37.9179 28.5835 37.8602 29.1699 37.9727 29.7357C38.0853 30.3015 38.363 30.8212 38.7709 31.2291C39.1788 31.637 39.6985 31.9148 40.2643 32.0273C40.8301 32.1399 41.4165 32.0821 41.9495 31.8613C42.4824 31.6406 42.938 31.2668 43.2585 30.7871C43.5789 30.3075 43.75 29.7436 43.75 29.1667C43.75 28.3931 43.4427 27.6513 42.8957 27.1043C42.3488 26.5573 41.6069 26.25 40.8333 26.25ZM32.0833 35C31.5065 35 30.9426 35.1711 30.4629 35.4916C29.9833 35.8121 29.6094 36.2676 29.3887 36.8005C29.1679 37.3335 29.1102 37.9199 29.2227 38.4857C29.3353 39.0515 29.613 39.5712 30.0209 39.9791C30.4288 40.387 30.9485 40.6648 31.5143 40.7773C32.0801 40.8899 32.6665 40.8321 33.1995 40.6113C33.7324 40.3906 34.188 40.0168 34.5085 39.5371C34.8289 39.0575 35 38.4936 35 37.9167C35 37.1431 34.6927 36.4013 34.1457 35.8543C33.5988 35.3073 32.8569 35 32.0833 35ZM69.6092 8.62753L69.3904 9.24294C65.0096 21.3996 60.8067 32.9584 52.5 43.225V43.75C52.4949 48.2175 51.5585 52.6348 49.7506 56.7202C47.9427 60.8055 45.303 64.4691 42 67.4771C40.2515 69.0903 37.9623 69.9903 35.5833 70C33.1073 69.9923 30.7352 69.0041 28.986 67.2517C27.2368 65.4992 26.2531 63.1252 26.25 60.6492V57.2921C24.0978 56.598 22.1387 55.4082 20.5304 53.8184L20.4167 53.7075L13.7288 60.3955C13.1787 60.9267 12.4419 61.2207 11.6772 61.2141C10.9124 61.2074 10.1809 60.9007 9.64011 60.3599C9.09934 59.8191 8.7926 59.0876 8.78595 58.3229C8.77931 57.5581 9.07329 56.8214 9.60458 56.2713L16.2925 49.5834L16.1788 49.4725C14.5879 47.8624 13.3954 45.9028 12.6963 43.75H9.80875C7.20852 43.7477 4.71542 42.714 2.8765 40.8756C1.03759 39.0372 0.00308896 36.5444 0 33.9442C0.00515922 31.4047 0.984385 28.9639 2.73583 27.125C5.78521 23.9933 9.44647 21.5226 13.4918 19.8668C17.5371 18.2109 21.8799 17.4053 26.25 17.5H26.775C37.0417 9.19628 48.5917 4.99336 60.7425 0.615442L61.3725 0.390858C62.5222 -0.0318215 63.7689 -0.116568 64.9653 0.146633C66.1617 0.409833 67.2577 1.00998 68.1239 1.87616C68.9901 2.74235 69.5902 3.83837 69.8534 5.03473C70.1166 6.23109 70.0319 7.47779 69.6092 8.62753ZM9.80875 37.9167H11.9583C12.1774 35.3469 13.0742 32.8811 14.5571 30.7709C16.1847 28.4291 17.9464 26.1834 19.8333 24.045C14.9407 25.0577 10.4678 27.5239 7 31.1209C6.26226 31.8768 5.84439 32.888 5.83333 33.9442C5.83488 34.9978 6.2543 36.0078 6.99959 36.7525C7.74487 37.4972 8.75515 37.9159 9.80875 37.9167ZM45.7917 50.3184C43.6996 52.1497 41.5068 53.8625 39.2233 55.4488C37.1114 56.9173 34.6475 57.799 32.0833 58.0038V60.6492C32.0849 61.5821 32.4564 62.4764 33.1163 63.1358C33.7763 63.7952 34.6708 64.1659 35.6038 64.1667C36.5286 64.153 37.415 63.7941 38.0888 63.1604C41.8489 59.7185 44.5254 55.2562 45.7917 50.3184ZM63.9829 6.01711C63.9052 5.93066 63.8024 5.87068 63.6889 5.84558C63.5754 5.82047 63.4569 5.8315 63.35 5.87711L62.7229 6.10461C48.5946 11.1942 36.3942 15.5925 25.8883 26.0954C23.4784 28.5806 21.2849 31.2669 19.3317 34.125C18.1436 35.8114 17.5895 37.8632 17.7672 39.9183C17.9449 41.9735 18.843 43.8998 20.3029 45.3571L24.6546 49.7029C26.1112 51.1618 28.0362 52.0595 30.09 52.2377C32.1439 52.4159 34.1947 51.8632 35.8808 50.6771C38.7374 48.7242 41.4217 46.5307 43.9046 44.1204C54.4046 33.6204 58.8088 21.4084 63.9013 7.27419L64.1229 6.65878C64.1701 6.5507 64.182 6.43049 64.1569 6.31526C64.1317 6.20004 64.0709 6.0957 63.9829 6.01711Z" fill="white"/>
</g>
<defs>
<clipPath id="clip0">
<rect width="70" height="70" fill="white"/>
</clipPath>
</defs>
</svg>
