<svg width="70" height="70" viewBox="0 0 70 70" fill="none" xmlns="http://www.w3.org/2000/svg">
<path d="M55.4167 8.75H14.5833C10.717 8.75463 7.01038 10.2926 4.27647 13.0265C1.54257 15.7604 0.00463125 19.467 0 23.3333L0 40.8333C0.00463125 44.6997 1.54257 48.4063 4.27647 51.1402C7.01038 53.8741 10.717 55.412 14.5833 55.4167H32.0833V58.3333H23.3333C22.5598 58.3333 21.8179 58.6406 21.2709 59.1876C20.724 59.7346 20.4167 60.4765 20.4167 61.25C20.4167 62.0236 20.724 62.7654 21.2709 63.3124C21.8179 63.8594 22.5598 64.1667 23.3333 64.1667H46.6667C47.4402 64.1667 48.1821 63.8594 48.7291 63.3124C49.276 62.7654 49.5833 62.0236 49.5833 61.25C49.5833 60.4765 49.276 59.7346 48.7291 59.1876C48.1821 58.6406 47.4402 58.3333 46.6667 58.3333H37.9167V55.4167H55.4167C59.283 55.412 62.9896 53.8741 65.7235 51.1402C68.4574 48.4063 69.9954 44.6997 70 40.8333V23.3333C69.9954 19.467 68.4574 15.7604 65.7235 13.0265C62.9896 10.2926 59.283 8.75463 55.4167 8.75ZM64.1667 40.8333C64.1667 43.154 63.2448 45.3796 61.6039 47.0205C59.9629 48.6615 57.7373 49.5833 55.4167 49.5833H14.5833C12.2627 49.5833 10.0371 48.6615 8.39615 47.0205C6.75521 45.3796 5.83333 43.154 5.83333 40.8333V23.3333C5.83333 21.0127 6.75521 18.7871 8.39615 17.1462C10.0371 15.5052 12.2627 14.5833 14.5833 14.5833H55.4167C57.7373 14.5833 59.9629 15.5052 61.6039 17.1462C63.2448 18.7871 64.1667 21.0127 64.1667 23.3333V40.8333Z" fill="white"/>
</svg>
