<svg width="100" height="100" viewBox="0 0 100 100" fill="none" xmlns="http://www.w3.org/2000/svg">
<path d="M90.3277 91.4463L83.6992 98.0746C82.5152 99.2525 79.0484 99.9972 78.9447 99.9972C57.9613 100.174 37.7594 91.9349 22.9132 77.0852C8.02435 62.1991 -0.224266 41.9177 0.00464013 20.8734C0.00464013 20.8611 0.764599 17.4921 1.94565 16.3203L8.57396 9.68591C11.0062 7.25682 15.6628 6.15819 18.9251 7.24451L20.3228 7.71443C23.5851 8.80076 26.9936 12.4017 27.897 15.7158L31.2354 27.9652C32.1417 31.2855 30.9241 36.0093 28.495 38.4384L24.064 42.8694C28.4096 58.9762 41.0403 71.6039 57.1379 75.9557L61.5689 71.5244C63.9982 69.0951 68.7344 67.8807 72.0547 68.784L84.3042 72.1287C87.6122 73.026 91.2132 76.4314 92.3058 79.6967L92.7696 81.0943C93.8552 84.3603 92.7568 89.0172 90.3277 91.4463ZM56.2467 49.9985H62.4965C62.4965 43.0956 56.8998 37.4989 49.9969 37.4989V43.7487C53.442 43.7487 56.2467 46.5561 56.2467 49.9985ZM81.2458 49.9985C81.2458 32.7382 67.257 18.7494 49.9969 18.7494V24.9994C63.7842 24.9994 74.9961 36.2173 74.9961 49.9985H81.2458ZM49.9969 0V6.24979C74.1172 6.24979 93.7454 25.8781 93.7454 49.9985H99.9952C99.9952 22.3871 77.6084 0 49.9969 0Z" fill="#C1272D"/>
</svg>
