<svg width="100" height="100" viewBox="0 0 100 100" fill="none" xmlns="http://www.w3.org/2000/svg">
<path d="M51.136 34.0908C54.274 34.0908 56.8178 31.547 56.8178 28.4089C56.8178 25.2709 54.274 22.7271 51.136 22.7271C47.998 22.7271 45.4541 25.2709 45.4541 28.4089C45.4541 31.547 47.998 34.0908 51.136 34.0908Z" fill="#C1272D"/>
<path d="M63.6366 74.9997H56.8186V38.6362H38.6367V43.1816H45.4549V74.9997H38.6367V79.5452H63.6366V74.9997Z" fill="#C1272D"/>
<path d="M100 50C100 22.3863 77.6136 0 50 0C22.3863 0 0 22.3863 0 50C0 77.6136 22.3863 100 50 100C77.6136 100 100 77.6136 100 50ZM4.54542 50C4.54542 24.8954 24.8954 4.54542 50 4.54542C75.1046 4.54542 95.4546 24.8954 95.4546 50C95.4546 75.1046 75.1046 95.4546 50 95.4546C24.8954 95.4546 4.54542 75.1046 4.54542 50Z" fill="#C1272D"/>
</svg>
