<svg width="123" height="100" viewBox="0 0 123 100" fill="none" xmlns="http://www.w3.org/2000/svg">
<path d="M101.803 91.4463L95.1746 98.0746C93.9906 99.2525 90.5238 99.9972 90.4201 99.9972C69.4368 100.174 49.2349 91.9349 34.3886 77.0852C19.4998 62.1991 11.2512 41.9177 11.4801 20.8734C11.4801 20.8611 12.2401 17.4921 13.4211 16.3203L20.0494 9.68591C22.4816 7.25682 27.1383 6.15819 30.4006 7.24451L31.7982 7.71443C35.0605 8.80076 38.4691 12.4017 39.3724 15.7158L42.7109 27.9652C43.6171 31.2855 42.3996 36.0093 39.9705 38.4384L35.5394 42.8694C39.8851 58.9762 52.5157 71.6039 68.6134 75.9557L73.0444 71.5244C75.4737 69.0951 80.2098 67.8807 83.5301 68.784L95.7797 72.1287C99.0877 73.026 102.689 76.4314 103.781 79.6967L104.245 81.0943C105.331 84.3603 104.232 89.0172 101.803 91.4463ZM67.7222 49.9985H73.9719C73.9719 43.0956 68.3753 37.4989 61.4724 37.4989V43.7487C64.9175 43.7487 67.7222 46.5561 67.7222 49.9985ZM92.7213 49.9985C92.7213 32.7382 78.7325 18.7494 61.4724 18.7494V24.9994C75.2596 24.9994 86.4715 36.2173 86.4715 49.9985H92.7213ZM61.4724 0V6.24979C85.5926 6.24979 105.221 25.8781 105.221 49.9985H111.471C111.471 22.3871 89.0838 0 61.4724 0Z" fill="#C1272D"/>
</svg>
