<svg width="139" height="100" viewBox="0 0 139 100" fill="none" xmlns="http://www.w3.org/2000/svg">
<g clip-path="url(#clip0)">
<path d="M63.907 0.108395C44.4481 1.35298 26.1364 10.0002 7.90048 26.5586C6.91563 27.4569 4.72948 29.5564 3.04117 31.2231L-0.0216064 34.2642L5.69268 39.7404L11.4178 45.2166L14.3399 42.327C15.9524 40.7469 17.9654 38.8097 18.8312 38.0305C39.0585 19.7945 58.8962 12.9006 79.3832 17.0023C94.0802 19.9352 109.654 28.8422 124.989 43.0738C125.79 43.8205 126.699 44.6538 127.013 44.9461L127.576 45.4547L132.424 40.4006C135.098 37.6084 137.565 35.0435 137.911 34.6755L138.528 34.0153L136.656 32.2837C115.422 12.5543 95.249 2.20796 74.2425 0.270733C72.1429 0.0759277 65.9308 -0.0214767 63.907 0.108395Z" fill="#C1272D"/>
<path d="M64.3398 28.4309C59.0692 28.8529 55.1082 29.6646 50.2705 31.3205C40.3138 34.6971 30.6493 41.0499 20.9524 50.5521C19.5995 51.8724 18.5065 52.9871 18.5065 53.0304C18.5065 53.0845 20.6601 55.1841 23.29 57.6949C25.9307 60.2166 28.4848 62.6625 28.9718 63.1386L29.8593 63.9936L31.9047 62.0023C35.1515 58.8205 37.5108 56.7642 40.5303 54.4915C47.4783 49.2425 54.3614 46.0066 61.2554 44.762C63.7554 44.3183 64.9567 44.2101 67.8571 44.2101C70.7467 44.2209 71.8398 44.3075 74.4588 44.762C84.5887 46.5261 95.2272 52.5326 106.255 62.7057C107.175 63.5391 107.944 64.2209 107.965 64.2101C108.117 64.1127 118.831 52.9006 118.831 52.8248C118.831 52.6516 114.567 48.7988 112.229 46.8508C101.764 38.1495 91.461 32.5651 81.0606 29.9785C78.0195 29.2209 75.119 28.7447 71.8073 28.4633C70.6385 28.3659 65.4112 28.3443 64.3398 28.4309Z" fill="#C1272D"/>
<path d="M65.3138 56.1256C58.052 56.6992 50.8442 59.762 44.2641 65.0758C42.1104 66.8183 38.3658 70.3356 38.4308 70.552C38.4524 70.6061 41.0173 73.0953 44.1342 76.0715L49.7836 81.4828L50.8983 80.3897C57.1104 74.2858 63.1385 71.4611 68.9069 71.9698C72.4351 72.2836 75.7576 73.5282 79.5454 75.9525C81.4935 77.1971 84.2749 79.4048 85.9632 81.0499L86.6991 81.7642L87.316 81.1148C87.6623 80.7577 90.1082 78.2035 92.7489 75.4438C95.4004 72.6841 97.5757 70.3789 97.5865 70.3031C97.5974 70.2382 97.0562 69.6862 96.3961 69.0802C88.1601 61.591 80.2164 57.4784 71.7965 56.3312C70.5628 56.1581 66.4935 56.039 65.3138 56.1256Z" fill="#C1272D"/>
<path d="M66.1798 82.0455C62.9438 82.5109 60.065 84.5996 58.723 87.4568C58.1278 88.7122 57.9655 89.4806 57.9655 90.9633C57.9655 92.4459 58.1278 93.2143 58.723 94.4698C60.3897 97.9979 64.1776 100.173 68.2902 99.9568C72.1213 99.762 75.3465 97.7165 76.8508 94.5239C77.4352 93.3009 77.63 92.3918 77.63 90.9633C77.63 89.4914 77.4244 88.5823 76.7859 87.2836C74.9785 83.5607 70.617 81.407 66.1798 82.0455Z" fill="#C1272D"/>
</g>
<defs>
<clipPath id="clip0">
<rect width="138.528" height="100" fill="white"/>
</clipPath>
</defs>
</svg>
